<?xml version="1.0" encoding="UTF-8"?>
<!DOCTYPE svg PUBLIC "-//W3C//DTD SVG 1.1//EN" "http://www.w3.org/Graphics/SVG/1.1/DTD/svg11.dtd">
<svg xmlns="http://www.w3.org/2000/svg" version="1.1" width="500px" height="500px" style="shape-rendering:geometricPrecision; text-rendering:geometricPrecision; image-rendering:optimizeQuality; fill-rule:evenodd; clip-rule:evenodd" xmlns:xlink="http://www.w3.org/1999/xlink">
<g><path style="opacity:0.999" fill="#febd59" d="M 300.5,229.5 C 299.211,228.499 297.878,228.666 296.5,230C 286.833,230.667 277.167,230.667 267.5,230C 266.619,229.292 265.953,228.458 265.5,227.5C 265.829,213.99 265.496,200.656 264.5,187.5C 255.167,187.5 245.833,187.5 236.5,187.5C 236.203,194.92 236.536,202.254 237.5,209.5C 237.5,216.167 237.5,222.833 237.5,229.5C 225.187,230.795 213.187,230.795 201.5,229.5C 201.028,179.467 201.528,129.467 203,79.5C 211.569,58.1044 227.403,47.1044 250.5,46.5C 276.997,47.5003 293.497,60.8336 300,86.5C 300.5,134.166 300.667,181.832 300.5,229.5 Z M 263.5,109.5 C 263.369,123.848 263.702,138.181 264.5,152.5C 263.596,153.209 263.263,154.209 263.5,155.5C 254.833,155.5 246.167,155.5 237.5,155.5C 237.5,140.167 237.5,124.833 237.5,109.5C 238.167,109.5 238.5,109.167 238.5,108.5C 243.616,99.6374 250.616,97.8041 259.5,103C 261.248,105.013 262.582,107.18 263.5,109.5 Z"/></g>
<g><path style="opacity:0.998" fill="#febd59" d="M 405.5,105.5 C 404.711,105.783 404.044,106.283 403.5,107C 394.167,107.667 384.833,107.667 375.5,107C 375,106.5 374.5,106 374,105.5C 373.667,100.167 373.333,94.8333 373,89.5C 369.281,79.7251 362.448,76.5584 352.5,80C 345.863,85.7106 343.696,92.8772 346,101.5C 346.422,103.426 347.589,104.426 349.5,104.5C 349.389,105.117 349.056,105.617 348.5,106C 355.791,114.463 364.124,121.63 373.5,127.5C 373.5,128.167 373.833,128.5 374.5,128.5C 385.89,137.059 395.39,147.392 403,159.5C 408.618,172.662 410.452,186.329 408.5,200.5C 407.883,200.389 407.383,200.056 407,199.5C 399.529,221.949 383.862,233.282 360,233.5C 343.782,233.557 330.782,227.224 321,214.5C 318.026,208.332 315.193,202.332 312.5,196.5C 312.334,189.159 312.5,181.826 313,174.5C 313.5,174 314,173.5 314.5,173C 324.167,172.333 333.833,172.333 343.5,173C 344.308,173.308 344.975,173.808 345.5,174.5C 346.286,179.781 346.786,185.115 347,190.5C 350.538,199.351 357.038,202.518 366.5,200C 369.079,198.924 370.746,197.091 371.5,194.5C 372.496,194.586 373.329,194.252 374,193.5C 376.795,185.114 375.461,177.447 370,170.5C 354.369,157.204 339.036,143.538 324,129.5C 318.474,122.444 315.141,114.444 314,105.5C 313.722,106.416 313.222,107.082 312.5,107.5C 309.926,91.4694 313.093,76.8028 322,63.5C 342.548,43.7919 365.048,41.2919 389.5,56C 403.581,69.7407 408.914,86.2407 405.5,105.5 Z"/></g>
<g><path style="opacity:0.997" fill="#febd59" d="M 188.5,110.5 C 178.213,111.619 167.88,111.785 157.5,111C 157,110.5 156.5,110 156,109.5C 155.667,102.5 155.333,95.5 155,88.5C 151.259,79.211 144.759,76.3776 135.5,80C 131.734,82.59 129.4,86.09 128.5,90.5C 127.167,96.8333 127.167,103.167 128.5,109.5C 128.333,136.502 128.5,163.502 129,190.5C 132.477,199.987 138.977,203.153 148.5,200C 150.333,198.167 152.167,196.333 154,194.5C 155.251,185.241 155.918,175.908 156,166.5C 156.5,166 157,165.5 157.5,165C 167.5,164.333 177.5,164.333 187.5,165C 188,165.5 188.5,166 189,166.5C 189.5,177.161 189.667,187.828 189.5,198.5C 181.251,222.076 164.417,233.743 139,233.5C 114.109,231.425 98.6088,218.425 92.5,194.5C 92.3333,158.498 92.5,122.498 93,86.5C 97.0934,64.4065 110.26,51.2399 132.5,47C 166.465,43.5486 185.298,58.7152 189,92.5C 189.697,98.5368 189.53,104.537 188.5,110.5 Z"/></g>
<g><path style="opacity:1" fill="#9ad4dd" d="M 264.5,93.5 C 264.821,99.0262 264.488,104.36 263.5,109.5C 262.582,107.18 261.248,105.013 259.5,103C 250.616,97.8041 243.616,99.6374 238.5,108.5C 237.51,102.69 237.177,96.69 237.5,90.5C 240.86,79.3235 247.86,76.1568 258.5,81C 262.524,84.2132 264.524,88.3799 264.5,93.5 Z"/></g>
<g><path style="opacity:0.996" fill="#99d4de" d="M 405.5,105.5 C 406.589,112.117 406.756,118.783 406,125.5C 405.626,126.416 405.126,127.25 404.5,128C 394.506,128.5 384.506,128.666 374.5,128.5C 373.833,128.5 373.5,128.167 373.5,127.5C 372.903,120.819 372.07,114.152 371,107.5C 366.983,100.862 361.15,98.6958 353.5,101C 351.907,101.949 350.574,103.115 349.5,104.5C 347.589,104.426 346.422,103.426 346,101.5C 343.696,92.8772 345.863,85.7106 352.5,80C 362.448,76.5584 369.281,79.7251 373,89.5C 373.333,94.8333 373.667,100.167 374,105.5C 374.5,106 375,106.5 375.5,107C 384.833,107.667 394.167,107.667 403.5,107C 404.044,106.283 404.711,105.783 405.5,105.5 Z"/></g>
<g><path style="opacity:1" fill="#cec797" d="M 128.5,90.5 C 128.177,96.69 128.51,102.69 129.5,108.5C 129.5,109.167 129.167,109.5 128.5,109.5C 127.167,103.167 127.167,96.8333 128.5,90.5 Z"/></g>
<g><path style="opacity:0.999" fill="#cbc89b" d="M 237.5,90.5 C 237.177,96.69 237.51,102.69 238.5,108.5C 238.5,109.167 238.167,109.5 237.5,109.5C 236.167,103.167 236.167,96.8333 237.5,90.5 Z"/></g>
<g><path style="opacity:0.999" fill="#9ad4dd" d="M 371.5,194.5 C 359.636,181.808 346.636,170.308 332.5,160C 316.545,146.223 309.878,128.723 312.5,107.5C 313.222,107.082 313.722,106.416 314,105.5C 315.141,114.444 318.474,122.444 324,129.5C 339.036,143.538 354.369,157.204 370,170.5C 375.461,177.447 376.795,185.114 374,193.5C 373.329,194.252 372.496,194.586 371.5,194.5 Z"/></g>
<g><path style="opacity:0.999" fill="#9ad5df" d="M 188.5,110.5 C 190.083,117.593 189.749,124.593 187.5,131.5C 177.183,132.666 166.849,132.832 156.5,132C 155.809,130.933 155.309,129.766 155,128.5C 154.667,122.167 154.333,115.833 154,109.5C 150.831,100.932 144.998,98.0982 136.5,101C 133.228,102.767 130.895,105.267 129.5,108.5C 128.51,102.69 128.177,96.69 128.5,90.5C 129.4,86.09 131.734,82.59 135.5,80C 144.759,76.3776 151.259,79.211 155,88.5C 155.333,95.5 155.667,102.5 156,109.5C 156.5,110 157,110.5 157.5,111C 167.88,111.785 178.213,111.619 188.5,110.5 Z"/></g>
<g><path style="opacity:0.87" fill="#efbe68" d="M 264.5,93.5 C 265.809,115.029 265.809,134.696 264.5,152.5C 263.702,138.181 263.369,123.848 263.5,109.5C 264.488,104.36 264.821,99.0262 264.5,93.5 Z"/></g>
<g><path style="opacity:1" fill="#9cd4dd" d="M 264.5,187.5 C 264.797,194.92 264.464,202.254 263.5,209.5C 254.833,209.5 246.167,209.5 237.5,209.5C 236.536,202.254 236.203,194.92 236.5,187.5C 245.833,187.5 255.167,187.5 264.5,187.5 Z"/></g>
<g><path style="opacity:0.998" fill="#9ad4de" d="M 312.5,196.5 C 315.193,202.332 318.026,208.332 321,214.5C 330.782,227.224 343.782,233.557 360,233.5C 383.862,233.282 399.529,221.949 407,199.5C 407.383,200.056 407.883,200.389 408.5,200.5C 411.061,224.867 401.061,242.034 378.5,252C 364.261,255.761 350.261,255.095 336.5,250C 317.058,237.574 309.058,219.74 312.5,196.5 Z"/></g>
<g><path style="opacity:0.997" fill="#9ad4de" d="M 92.5,194.5 C 98.6088,218.425 114.109,231.425 139,233.5C 164.417,233.743 181.251,222.076 189.5,198.5C 192.987,222.698 183.987,240.198 162.5,251C 147.707,255.836 133.04,255.503 118.5,250C 105.987,244.16 97.8206,234.66 94,221.5C 92.7356,212.546 92.2356,203.546 92.5,194.5 Z"/></g>
<g><path style="opacity:0.892" fill="#ecc16e" d="M 264.5,187.5 C 265.496,200.656 265.829,213.99 265.5,227.5C 264.833,227.5 264.167,227.5 263.5,227.5C 263.5,221.5 263.5,215.5 263.5,209.5C 264.464,202.254 264.797,194.92 264.5,187.5 Z"/></g>
<g><path style="opacity:0.999" fill="#9ad5df" d="M 237.5,229.5 C 237.666,236.508 237.5,243.508 237,250.5C 236.25,251.126 235.416,251.626 234.5,252C 224.5,252.667 214.5,252.667 204.5,252C 204,251.5 203.5,251 203,250.5C 201.575,243.615 201.075,236.615 201.5,229.5C 213.187,230.795 225.187,230.795 237.5,229.5 Z"/></g>
<g><path style="opacity:1" fill="#9bd5df" d="M 263.5,227.5 C 264.167,227.5 264.833,227.5 265.5,227.5C 265.953,228.458 266.619,229.292 267.5,230C 277.167,230.667 286.833,230.667 296.5,230C 297.878,228.666 299.211,228.499 300.5,229.5C 300.666,235.842 300.5,242.175 300,248.5C 299.626,249.416 299.126,250.25 298.5,251C 288.266,252.617 277.933,252.95 267.5,252C 265.951,250.786 264.785,249.286 264,247.5C 263.5,240.842 263.334,234.175 263.5,227.5 Z"/></g>
<g><path style="opacity:0.999" fill="#febd59" d="M 189.5,442.5 C 188.373,443.122 187.373,443.955 186.5,445C 176.5,445.667 166.5,445.667 156.5,445C 155.648,443.272 154.648,443.105 153.5,444.5C 153.5,437.833 153.5,431.167 153.5,424.5C 154.492,417.352 154.825,410.019 154.5,402.5C 145.167,402.5 135.833,402.5 126.5,402.5C 126.175,409.687 126.509,416.687 127.5,423.5C 127.5,430.5 127.5,437.5 127.5,444.5C 115.167,445.833 102.833,445.833 90.5,444.5C 90.038,394.807 90.538,345.141 92,295.5C 100.624,273.436 116.791,262.102 140.5,261.5C 161.123,262.058 176.29,271.391 186,289.5C 187,292.833 188,296.167 189,299.5C 189.5,347.166 189.667,394.832 189.5,442.5 Z M 152.5,322.5 C 152.5,322.833 152.5,323.167 152.5,323.5C 153.455,339.465 153.788,355.465 153.5,371.5C 144.838,370.261 136.171,370.261 127.5,371.5C 127.5,355.5 127.5,339.5 127.5,323.5C 135.457,312.002 143.791,311.669 152.5,322.5 Z"/></g>
<g><path style="opacity:0.999" fill="#febc59" d="M 408.5,444.5 C 407.211,443.499 405.878,443.666 404.5,445C 394.5,445.667 384.5,445.667 374.5,445C 373.874,444.25 373.374,443.416 373,442.5C 372.722,443.416 372.222,444.082 371.5,444.5C 371.5,437.833 371.5,431.167 371.5,424.5C 372.492,417.352 372.825,410.019 372.5,402.5C 363.167,402.5 353.833,402.5 344.5,402.5C 344.203,409.92 344.536,417.254 345.5,424.5C 345.5,431.167 345.5,437.833 345.5,444.5C 334.039,445.8 322.705,445.8 311.5,444.5C 310.839,403.736 310.172,363.069 309.5,322.5C 305.514,290.591 318.847,270.424 349.5,262C 375.045,258.853 393.545,268.686 405,291.5C 406.737,295.661 407.737,299.995 408,304.5C 408.5,351.165 408.667,397.832 408.5,444.5 Z M 371.5,324.5 C 371.5,340.167 371.5,355.833 371.5,371.5C 362.964,371.25 354.464,370.917 346,370.5C 345.198,354.789 345.364,339.122 346.5,323.5C 346.5,323.167 346.5,322.833 346.5,322.5C 355.778,311.436 364.111,312.102 371.5,324.5 Z"/></g>
<g><path style="opacity:0.746" fill="#fec880" d="M 226.5,264.5 C 218.167,265.833 209.833,265.833 201.5,264.5C 209.837,263.214 218.17,263.214 226.5,264.5 Z"/></g>
<g><path style="opacity:0.996" fill="#febd59" d="M 300.5,285.5 C 298.876,285.36 297.71,286.027 297,287.5C 286.227,338.471 275.56,389.471 265,440.5C 264.426,442.492 263.259,443.992 261.5,445C 253.167,445.667 244.833,445.667 236.5,445C 236,444.5 235.5,444 235,443.5C 223.515,390.896 212.349,338.229 201.5,285.5C 200.5,285.5 199.5,285.5 198.5,285.5C 199.059,279.816 198.392,274.149 196.5,268.5C 196.809,265.508 198.476,264.175 201.5,264.5C 209.833,265.833 218.167,265.833 226.5,264.5C 228.981,264.323 230.814,265.323 232,267.5C 237.834,303.503 243.668,339.503 249.5,375.5C 255.397,339.18 261.231,302.847 267,266.5C 267.5,266 268,265.5 268.5,265C 279.561,262.952 290.561,263.119 301.5,265.5C 301.987,266.446 302.32,267.446 302.5,268.5C 301.217,273.711 299.884,278.878 298.5,284C 299.416,284.278 300.082,284.778 300.5,285.5 Z"/></g>
<g><path style="opacity:0.992" fill="#9ed4db" d="M 198.5,285.5 C 199.5,285.5 200.5,285.5 201.5,285.5C 212.349,338.229 223.515,390.896 235,443.5C 235.5,444 236,444.5 236.5,445C 244.833,445.667 253.167,445.667 261.5,445C 263.259,443.992 264.426,442.492 265,440.5C 275.56,389.471 286.227,338.471 297,287.5C 297.71,286.027 298.876,285.36 300.5,285.5C 301.947,286.134 302.613,287.301 302.5,289C 290.201,346.163 278.034,403.329 266,460.5C 265.518,465.315 262.851,467.649 258,467.5C 251.519,466.665 245.019,466.498 238.5,467C 235.458,466.445 233.625,464.612 233,461.5C 220.834,404.003 208.667,346.503 196.5,289C 196.387,287.301 197.053,286.134 198.5,285.5 Z"/></g>
<g><path style="opacity:1" fill="#9bd4dd" d="M 153.5,305.5 C 153.822,311.358 153.489,317.025 152.5,322.5C 143.791,311.669 135.457,312.002 127.5,323.5C 126.346,317.013 126.179,310.346 127,303.5C 132.463,292.781 140.13,290.781 150,297.5C 151.993,299.818 153.159,302.484 153.5,305.5 Z"/></g>
<g><path style="opacity:1" fill="#9bd4dd" d="M 371.5,324.5 C 364.111,312.102 355.778,311.436 346.5,322.5C 345.511,317.025 345.178,311.358 345.5,305.5C 348.739,294.216 355.739,291.049 366.5,296C 369.106,297.938 370.939,300.438 372,303.5C 372.821,310.679 372.655,317.679 371.5,324.5 Z"/></g>
<g><path style="opacity:1" fill="#bcccb1" d="M 345.5,305.5 C 345.178,311.358 345.511,317.025 346.5,322.5C 346.5,322.833 346.5,323.167 346.5,323.5C 345.883,323.611 345.383,323.944 345,324.5C 344.18,317.986 344.347,311.653 345.5,305.5 Z"/></g>
<g><path style="opacity:0.999" fill="#bcccb1" d="M 153.5,305.5 C 154.654,311.987 154.821,318.654 154,325.5C 153.722,324.584 153.222,323.918 152.5,323.5C 152.5,323.167 152.5,322.833 152.5,322.5C 153.489,317.025 153.822,311.358 153.5,305.5 Z"/></g>
<g><path style="opacity:0.829" fill="#e8c682" d="M 309.5,322.5 C 310.172,363.069 310.839,403.736 311.5,444.5C 310.833,444.5 310.167,444.5 309.5,444.5C 309.5,403.833 309.5,363.167 309.5,322.5 Z"/></g>
<g><path style="opacity:1" fill="#9ad4de" d="M 153.5,424.5 C 144.918,423.53 136.251,423.197 127.5,423.5C 126.509,416.687 126.175,409.687 126.5,402.5C 135.833,402.5 145.167,402.5 154.5,402.5C 154.825,410.019 154.492,417.352 153.5,424.5 Z"/></g>
<g><path style="opacity:1" fill="#9ad4de" d="M 371.5,424.5 C 362.932,423.185 354.265,423.185 345.5,424.5C 344.536,417.254 344.203,409.92 344.5,402.5C 353.833,402.5 363.167,402.5 372.5,402.5C 372.825,410.019 372.492,417.352 371.5,424.5 Z"/></g>
<g><path style="opacity:0.99" fill="#9ad5e0" d="M 189.5,442.5 C 189.666,449.841 189.5,457.174 189,464.5C 187.829,465.893 186.329,466.727 184.5,467C 174.758,467.92 165.092,467.587 155.5,466C 154.874,465.25 154.374,464.416 154,463.5C 153.5,457.175 153.334,450.842 153.5,444.5C 154.648,443.105 155.648,443.272 156.5,445C 166.5,445.667 176.5,445.667 186.5,445C 187.373,443.955 188.373,443.122 189.5,442.5 Z"/></g>
<g><path style="opacity:0.996" fill="#9ad5e0" d="M 309.5,444.5 C 310.167,444.5 310.833,444.5 311.5,444.5C 322.705,445.8 334.039,445.8 345.5,444.5C 345.797,451.558 345.464,458.558 344.5,465.5C 343.624,466.251 342.624,466.751 341.5,467C 332.167,467.667 322.833,467.667 313.5,467C 312.376,466.751 311.376,466.251 310.5,465.5C 309.536,458.558 309.203,451.558 309.5,444.5 Z"/></g>
<g><path style="opacity:0.998" fill="#9ad5e0" d="M 408.5,444.5 C 408.884,451.589 408.384,458.589 407,465.5C 404.876,466.227 402.709,466.894 400.5,467.5C 393.5,466.167 386.5,466.167 379.5,467.5C 376.416,467.139 373.916,465.806 372,463.5C 371.5,457.175 371.334,450.842 371.5,444.5C 372.222,444.082 372.722,443.416 373,442.5C 373.374,443.416 373.874,444.25 374.5,445C 384.5,445.667 394.5,445.667 404.5,445C 405.878,443.666 407.211,443.499 408.5,444.5 Z"/></g>
<g><path style="opacity:0.999" fill="#9ad5e0" d="M 127.5,444.5 C 127.666,450.842 127.5,457.175 127,463.5C 126.626,464.416 126.126,465.25 125.5,466C 115.156,466.607 104.822,466.94 94.5,467C 92.6667,466.5 91.5,465.333 91,463.5C 90.5005,457.175 90.3338,450.842 90.5,444.5C 102.833,445.833 115.167,445.833 127.5,444.5 Z"/></g>
</svg>
